<svg version="1.0" xmlns="http://www.w3.org/2000/svg"
 width="238.000000pt" height="212.000000pt" viewBox="0 0 238.000000 212.000000"
 preserveAspectRatio="xMidYMid meet">

<g transform="translate(0.000000,212.000000) scale(0.100000,-0.100000)">
<path d="M548 1650 c-304 -337 -302 -853 4 -1174 l76 -81 46 44 45 44 -68 73
c-272 285 -273 720 -3 1015 l61 66 -42 41 c-24 23 -46 42 -49 42 -4 0 -35 -32
-70 -70z"/>
<path d="M1713 1678 l-41 -43 60 -65 c270 -291 268 -729 -3 -1014 l-68 -73 45
-44 46 -44 78 82 c64 68 88 102 133 195 77 157 92 221 91 393 0 114 -4 155
-23 220 -28 102 -88 227 -142 296 -46 60 -120 139 -129 139 -3 0 -24 -19 -47
-42z"/>
<path d="M786 1440 c-99 -108 -147 -232 -147 -380 0 -153 49 -274 153 -382
l59 -62 46 46 46 46 -50 50 c-110 106 -155 262 -118 405 21 80 46 125 106 191
l52 57 -45 45 -45 45 -57 -61z"/>
<path d="M1491 1456 l-44 -45 52 -57 c60 -66 85 -111 106 -191 37 -143 -8
-299 -118 -405 l-50 -50 46 -46 46 -46 59 62 c104 108 153 229 153 382 0 149
-49 275 -149 380 l-57 61 -44 -45z"/>
<path d="M1112 1204 c-99 -51 -111 -211 -19 -276 41 -30 123 -36 171 -13 103
49 117 211 23 277 -41 29 -129 35 -175 12z"/>
</g>
</svg>
