<?xml version="1.0"?>
<svg xmlns="http://www.w3.org/2000/svg" viewBox="0 0 16 16">
    <path style="line-height:normal;text-indent:0;text-align:start;text-decoration-line:none;text-decoration-style:solid;text-decoration-color:#000;text-transform:none;block-progression:tb;isolation:auto;mix-blend-mode:normal" d="M 2.4238281 1 C 1.6214424 1 1 1.698 1 2.5 L 1 5 L 1 6 L 1 9 L 1 10 L 1 12.5 C 1 13.301396 1.6210177 14 2.4238281 14 L 12.576172 14 C 13.378558 14 14 13.302 14 12.5 L 14 2.5 C 14 1.6986039 13.378982 1 12.576172 1 L 2.4238281 1 z M 2.4238281 2 L 5 2 L 5 5 L 2 5 L 2 2.5 C 2 2.198 2.2082138 2 2.4238281 2 z M 6 2 L 12.576172 2 C 12.793361 2 13 2.1973961 13 2.5 L 13 5 L 6 5 L 6 2 z M 2 6 L 5 6 L 5 9 L 2 9 L 2 6 z M 6 6 L 13 6 L 13 9 L 6 9 L 6 6 z M 2 10 L 5 10 L 5 13 L 2.4238281 13 C 2.2066386 13 2 12.802604 2 12.5 L 2 10 z M 6 10 L 13 10 L 13 12.5 C 13 12.802 12.791786 13 12.576172 13 L 6 13 L 6 10 z" font-weight="400" font-family="sans-serif" white-space="normal" overflow="visible"/>
</svg>
